# xmcd
#
# Track frame offsets: 
#        150
#        16490
#        29481
#        44789
#        57599
#        67221
#        86852
#        101882
#        123186
#        139818
#        152829
#        167420
#        188703
#        210363
#        234867
#
# Disc length: 3470 seconds
#
# Revision: 0
# Processed by: cddbd v1.5.2PL0 Copyright (c) Steve Scherf et al.
# Submitted via: ExactAudioCopy v1.0b1
#
DISCID=d60d8c0f
DTITLE=Madison Crawl - Brass Balls
DYEAR=1900
DGENRE=Swing
TTITLE0=Chicken Feed Boogie
TTITLE1=Oak Sha Moke Sha Pop
TTITLE2=Too Much Trouble
TTITLE3=Slow Down
TTITLE4=The Mule
TTITLE5=Part Time Love
TTITLE6=The Hideaway
TTITLE7=Big Legged Mama
TTITLE8=Your Wig is Gone
TTITLE9=Bullfrog Blues
TTITLE10=The Whammy
TTITLE11=They Raided the House
TTITLE12=Brass Balls
TTITLE13=Alligator Wine
TTITLE14=Madison Crawl Boogie
EXTD=
EXTT0=
EXTT1=
EXTT2=
EXTT3=
EXTT4=
EXTT5=
EXTT6=
EXTT7=
EXTT8=
EXTT9=
EXTT10=
EXTT11=
EXTT12=
EXTT13=
EXTT14=
PLAYORDER=
